<svg xmlns="http://www.w3.org/2000/svg" width="512" height="512" viewBox="0 0 512 512" role="img" aria-labelledby="title desc">
<title>simple settings volume steps transparent icon</title>
<desc>Transparent SVG icon for Cowlsly Simple Settings volume steps and safe listening.</desc>
<defs><radialGradient id="bg" cx="50%" cy="42%" r="60%"><stop offset="0" stop-color="#17304d"/><stop offset=".7" stop-color="#071321"/><stop offset="1" stop-color="#020610" stop-opacity=".96"/></radialGradient><linearGradient id="gold" x1="0" y1="0" x2="1" y2="1"><stop offset="0" stop-color="#fff2a8"/><stop offset=".5" stop-color="#d7a93d"/><stop offset="1" stop-color="#815b18"/></linearGradient><filter id="glow" x="-40%" y="-40%" width="180%" height="180%"><feGaussianBlur stdDeviation="9" result="b"/><feMerge><feMergeNode in="b"/><feMergeNode in="SourceGraphic"/></feMerge></filter></defs>
<circle cx="256" cy="256" r="190" fill="url(#bg)" stroke="url(#gold)" stroke-width="14" filter="url(#glow)"/>
<path d="M132 276h58l74 58V178l-74 58h-58Z" fill="#081827" stroke="#20f0ff" stroke-width="14" stroke-linejoin="round"/>
<path d="M305 210c22 22 22 70 0 92M343 174c48 48 48 116 0 164" fill="none" stroke="url(#gold)" stroke-width="16" stroke-linecap="round"/>
<rect x="132" y="376" width="50" height="14" rx="7" fill="#20f0ff"/><rect x="196" y="376" width="50" height="14" rx="7" fill="#20f0ff"/><rect x="260" y="376" width="50" height="14" rx="7" fill="#20f0ff"/><rect x="324" y="376" width="50" height="14" rx="7" fill="#d7a93d"/>
<path d="M386 377l18 32h-36Z" fill="#ff5c78" stroke="#fff2a8" stroke-width="5"/>
</svg>
